<?xml version="1.0" encoding="UTF-8"?>
<svg xmlns="http://www.w3.org/2000/svg" viewBox="0 0 1440 760" role="img" aria-labelledby="title desc">
  <title id="title">Steam 成就翻译库收录统计</title>
  <desc id="desc">左侧为累计收录游戏数量趋势折线图，右侧为贡献者贡献量前十名横向条形图。</desc>
  <defs>
    <filter id="paper" x="-5%" y="-5%" width="110%" height="110%">
      <feTurbulence type="fractalNoise" baseFrequency="0.72" numOctaves="3" seed="17" result="noise"/>
      <feColorMatrix in="noise" type="matrix" values="0 0 0 0 0.84 0 0 0 0 0.80 0 0 0 0 0.70 0 0 0 0.10 0" result="grain"/>
      <feBlend in="SourceGraphic" in2="grain" mode="multiply"/>
    </filter>
    <filter id="roughen" x="-4%" y="-4%" width="108%" height="108%">
      <feTurbulence type="fractalNoise" baseFrequency="0.018 0.085" numOctaves="1" seed="9" result="noise"/>
      <feDisplacementMap in="SourceGraphic" in2="noise" scale="2.1" xChannelSelector="R" yChannelSelector="G"/>
    </filter>
    <pattern id="blue-hatch" width="10" height="10" patternUnits="userSpaceOnUse" patternTransform="rotate(12)">
      <rect width="10" height="10" fill="#cfe8f8"/>
      <path d="M 1 10 L 7 0 M 7 10 L 13 0" stroke="#6baed6" stroke-width="1.5" opacity="0.72"/>
    </pattern>
    <pattern id="mint-hatch" width="10" height="10" patternUnits="userSpaceOnUse" patternTransform="rotate(12)">
      <rect width="10" height="10" fill="#d8f0e2"/>
      <path d="M 1 10 L 7 0 M 7 10 L 13 0" stroke="#70b995" stroke-width="1.5" opacity="0.72"/>
    </pattern>
    <pattern id="peach-hatch" width="10" height="10" patternUnits="userSpaceOnUse" patternTransform="rotate(12)">
      <rect width="10" height="10" fill="#ffe2bd"/>
      <path d="M 1 10 L 7 0 M 7 10 L 13 0" stroke="#e9a947" stroke-width="1.5" opacity="0.72"/>
    </pattern>
    <pattern id="lilac-hatch" width="10" height="10" patternUnits="userSpaceOnUse" patternTransform="rotate(12)">
      <rect width="10" height="10" fill="#e8dcf5"/>
      <path d="M 1 10 L 7 0 M 7 10 L 13 0" stroke="#a98ac8" stroke-width="1.5" opacity="0.72"/>
    </pattern>
    <pattern id="rose-hatch" width="10" height="10" patternUnits="userSpaceOnUse" patternTransform="rotate(12)">
      <rect width="10" height="10" fill="#f9d8df"/>
      <path d="M 1 10 L 7 0 M 7 10 L 13 0" stroke="#d88095" stroke-width="1.5" opacity="0.72"/>
    </pattern>
    <pattern id="sand-hatch" width="10" height="10" patternUnits="userSpaceOnUse" patternTransform="rotate(12)">
      <rect width="10" height="10" fill="#eee8d6"/>
      <path d="M 1 10 L 7 0 M 7 10 L 13 0" stroke="#aaa184" stroke-width="1.5" opacity="0.72"/>
    </pattern>
    <style>
      .hand { font-family: 'Segoe Print', 'Comic Sans MS', 'Microsoft YaHei', 'Noto Sans SC', sans-serif; fill: #242424; }
      .title { font-size: 34px; font-weight: 700; letter-spacing: 1px; }
      .label { font-size: 20px; font-weight: 600; }
      .small { font-size: 17px; }
      .ink { fill: none; stroke: #252525; stroke-linecap: round; stroke-linejoin: round; }
    </style>
  </defs>
  <rect width="1440" height="760" fill="#fbf7ec" filter="url(#paper)"/>
  <g filter="url(#roughen)">
    <path d="M 54 25 C 36 36 31 61 32 96 L 38 681 C 38 716 55 733 87 735 L 675 731 C 699 730 710 711 710 679 L 704 75 C 703 43 686 27 654 27 Z" fill="#fffdf7" fill-opacity="0.82" stroke="#262626" stroke-width="4"/>
    <path d="M 757 28 C 738 42 733 63 734 96 L 739 682 C 740 716 758 733 789 734 L 1380 730 C 1403 728 1411 709 1409 678 L 1404 75 C 1402 45 1384 28 1354 29 Z" fill="#fffdf7" fill-opacity="0.82" stroke="#262626" stroke-width="4"/>
  </g>
  <g class="ink" stroke-width="3" filter="url(#roughen)">
    <rect x="70" y="56" width="58" height="50" rx="3"/>
    <path d="M 80 94 L 92 79 L 103 88 L 119 66 M 112 66 L 120 65 L 119 74"/>
    <path d="M 82 100 L 120 100" stroke-width="1.5"/>
  </g>
  <text x="150" y="94" class="hand title">收录游戏数量趋势</text>
  <path d="M 660 54 L 665 66 L 678 67 L 668 75 L 671 88 L 660 81 L 649 88 L 652 75 L 642 67 L 655 66 Z" fill="#d9edf9" stroke="#2b80bd" stroke-width="3" stroke-linejoin="round" filter="url(#roughen)"/>
  <g class="ink" stroke-width="3" filter="url(#roughen)">
    <path d="M 775 64 L 787 82 L 804 69 L 817 83 L 829 63 L 824 99 L 785 99 Z"/>
    <circle cx="774" cy="60" r="3" fill="#fffdf7"/>
    <circle cx="805" cy="63" r="3" fill="#fffdf7"/>
    <circle cx="831" cy="59" r="3" fill="#fffdf7"/>
    <path d="M 787 105 Q 805 110 823 105"/>
  </g>
  <text x="858" y="94" class="hand title">贡献者贡献量排行</text>
  <g stroke="#3588c4" stroke-width="4" stroke-linecap="round" filter="url(#roughen)">
    <path d="M 1360 61 L 1355 78"/>
    <path d="M 1375 60 L 1368 80"/>
    <path d="M 1387 72 L 1377 85"/>
  </g>
  <text x="75" y="151" class="hand label">数量（款）</text>
  <text x="88.0" y="657.0" text-anchor="end" class="hand label">0</text>
  <path d="M 108.0 556.0 C 250 554.8 515 557.0 682.0 556.0" fill="none" stroke="#b8bdba" stroke-width="1.4" stroke-dasharray="6 9" opacity="0.65"/>
  <text x="88.0" y="563.0" text-anchor="end" class="hand label">20</text>
  <path d="M 108.0 462.0 C 250 460.8 515 463.0 682.0 462.0" fill="none" stroke="#b8bdba" stroke-width="1.4" stroke-dasharray="6 9" opacity="0.65"/>
  <text x="88.0" y="469.0" text-anchor="end" class="hand label">40</text>
  <path d="M 108.0 368.0 C 250 366.8 515 369.0 682.0 368.0" fill="none" stroke="#b8bdba" stroke-width="1.4" stroke-dasharray="6 9" opacity="0.65"/>
  <text x="88.0" y="375.0" text-anchor="end" class="hand label">60</text>
  <path d="M 108.0 274.0 C 250 272.8 515 275.0 682.0 274.0" fill="none" stroke="#b8bdba" stroke-width="1.4" stroke-dasharray="6 9" opacity="0.65"/>
  <text x="88.0" y="281.0" text-anchor="end" class="hand label">80</text>
  <path d="M 108.0 180.0 C 250 178.8 515 181.0 682.0 180.0" fill="none" stroke="#b8bdba" stroke-width="1.4" stroke-dasharray="6 9" opacity="0.65"/>
  <text x="88.0" y="187.0" text-anchor="end" class="hand label">100</text>
  <g class="ink" stroke-width="3.2" filter="url(#roughen)">
    <path d="M 108.0 172.0 C 106.0 330 110.0 510 108.0 650.0"/>
    <path d="M 108.0 650.0 C 270 652.0 500 648.0 690.0 650.0"/>
    <path d="M 683.0 641.0 L 692.0 650.0 L 683.0 659.0"/>
  </g>
  <path d="M 108.0 650.0 L 108.0 593.6 L 152.2 499.6 L 196.3 447.9 L 240.5 400.9 L 284.6 372.7 L 328.8 353.9 L 372.9 353.9 L 417.1 349.2 L 461.2 344.5 L 505.4 325.7 L 549.5 292.8 L 593.7 236.4 L 637.8 189.4 L 682.0 180.0 L 682.0 650.0 Z" fill="#b9dff3" opacity="0.34"/>
  <path d="M 108.0 593.6 L 152.2 499.6 L 196.3 447.9 L 240.5 400.9 L 284.6 372.7 L 328.8 353.9 L 372.9 353.9 L 417.1 349.2 L 461.2 344.5 L 505.4 325.7 L 549.5 292.8 L 593.7 236.4 L 637.8 189.4 L 682.0 180.0" fill="none" stroke="#6aaed6" stroke-width="8" opacity="0.28" stroke-linecap="round" stroke-linejoin="round" filter="url(#roughen)"/>
  <path d="M 108.0 593.6 L 152.2 499.6 L 196.3 447.9 L 240.5 400.9 L 284.6 372.7 L 328.8 353.9 L 372.9 353.9 L 417.1 349.2 L 461.2 344.5 L 505.4 325.7 L 549.5 292.8 L 593.7 236.4 L 637.8 189.4 L 682.0 180.0" fill="none" stroke="#242424" stroke-width="3.8" stroke-linecap="round" stroke-linejoin="round" filter="url(#roughen)"/>
  <circle cx="108.0" cy="593.6" r="5.4" fill="#fffdf7" stroke="#242424" stroke-width="3" filter="url(#roughen)"/>
  <circle cx="152.2" cy="499.6" r="5.4" fill="#fffdf7" stroke="#242424" stroke-width="3" filter="url(#roughen)"/>
  <circle cx="196.3" cy="447.9" r="5.4" fill="#fffdf7" stroke="#242424" stroke-width="3" filter="url(#roughen)"/>
  <circle cx="240.5" cy="400.9" r="5.4" fill="#fffdf7" stroke="#242424" stroke-width="3" filter="url(#roughen)"/>
  <circle cx="284.6" cy="372.7" r="5.4" fill="#fffdf7" stroke="#242424" stroke-width="3" filter="url(#roughen)"/>
  <circle cx="328.8" cy="353.9" r="5.4" fill="#fffdf7" stroke="#242424" stroke-width="3" filter="url(#roughen)"/>
  <circle cx="372.9" cy="353.9" r="5.4" fill="#fffdf7" stroke="#242424" stroke-width="3" filter="url(#roughen)"/>
  <circle cx="417.1" cy="349.2" r="5.4" fill="#fffdf7" stroke="#242424" stroke-width="3" filter="url(#roughen)"/>
  <circle cx="461.2" cy="344.5" r="5.4" fill="#fffdf7" stroke="#242424" stroke-width="3" filter="url(#roughen)"/>
  <circle cx="505.4" cy="325.7" r="5.4" fill="#fffdf7" stroke="#242424" stroke-width="3" filter="url(#roughen)"/>
  <circle cx="549.5" cy="292.8" r="5.4" fill="#fffdf7" stroke="#242424" stroke-width="3" filter="url(#roughen)"/>
  <circle cx="593.7" cy="236.4" r="5.4" fill="#fffdf7" stroke="#242424" stroke-width="3" filter="url(#roughen)"/>
  <circle cx="637.8" cy="189.4" r="5.4" fill="#fffdf7" stroke="#242424" stroke-width="3" filter="url(#roughen)"/>
  <circle cx="682.0" cy="180.0" r="5.4" fill="#fffdf7" stroke="#242424" stroke-width="3" filter="url(#roughen)"/>
  <path d="M 108.0 644.0 L 108.0 657.0" stroke="#242424" stroke-width="2.4" stroke-linecap="round" filter="url(#roughen)"/>
  <text x="108.0" y="687.0" text-anchor="middle" class="hand small">07/04</text>
  <path d="M 240.5 644.0 L 240.5 657.0" stroke="#242424" stroke-width="2.4" stroke-linecap="round" filter="url(#roughen)"/>
  <text x="240.5" y="687.0" text-anchor="middle" class="hand small">07/07</text>
  <path d="M 372.9 644.0 L 372.9 657.0" stroke="#242424" stroke-width="2.4" stroke-linecap="round" filter="url(#roughen)"/>
  <text x="372.9" y="687.0" text-anchor="middle" class="hand small">07/10</text>
  <path d="M 549.5 644.0 L 549.5 657.0" stroke="#242424" stroke-width="2.4" stroke-linecap="round" filter="url(#roughen)"/>
  <text x="549.5" y="687.0" text-anchor="middle" class="hand small">07/14</text>
  <path d="M 682.0 644.0 L 682.0 657.0" stroke="#242424" stroke-width="2.4" stroke-linecap="round" filter="url(#roughen)"/>
  <text x="682.0" y="687.0" text-anchor="middle" class="hand small">07/17</text>
  <text x="493" y="145" class="hand label">最新：100 款</text>
  <path d="M 620 149 Q 642 151 669.0 176.0" fill="none" stroke="#242424" stroke-width="2.5" stroke-linecap="round" filter="url(#roughen)"/>
  <path d="M 661.0 173.0 L 670.0 176.0 L 666.0 184.0" fill="none" stroke="#242424" stroke-width="2.5" stroke-linecap="round" stroke-linejoin="round"/>
  <path d="M 678.0 161.0 L 681.0 151.0 M 690.0 164.0 L 698.0 156.0 M 696.0 173.0 L 707.0 172.0" stroke="#e2aa15" stroke-width="3" stroke-linecap="round"/>
  <path d="M 1037.0 145 C 1035.0 300 1039.0 520 1037.0 684" fill="none" stroke="#242424" stroke-width="3" stroke-linecap="round" filter="url(#roughen)"/>
  <circle cx="774" cy="173.0" r="16" fill="#ffe28a" stroke="#242424" stroke-width="2.5" filter="url(#roughen)"/>
  <text x="774" y="180.0" text-anchor="middle" class="hand label">1</text>
  <text x="1018" y="180.0" text-anchor="end" class="hand" font-size="20px" font-weight="600">Rui-CC1225</text>
  <rect x="1045.0" y="157.0" width="245.0" height="32.0" rx="3" fill="url(#blue-hatch)" stroke="#242424" stroke-width="2.5" filter="url(#roughen)"/>
  <text x="1305.0" y="180.0" class="hand label">30 款</text>
  <circle cx="774" cy="225.0" r="16" fill="#fffdf7" stroke="#242424" stroke-width="2.5" filter="url(#roughen)"/>
  <text x="774" y="232.0" text-anchor="middle" class="hand label">2</text>
  <text x="1018" y="232.0" text-anchor="end" class="hand" font-size="20px" font-weight="600">KneeArcher</text>
  <rect x="1045.0" y="209.0" width="155.2" height="32.0" rx="3" fill="url(#mint-hatch)" stroke="#242424" stroke-width="2.5" filter="url(#roughen)"/>
  <text x="1215.2" y="232.0" class="hand label">19 款</text>
  <circle cx="774" cy="277.0" r="16" fill="#fffdf7" stroke="#242424" stroke-width="2.5" filter="url(#roughen)"/>
  <text x="774" y="284.0" text-anchor="middle" class="hand label">3</text>
  <text x="1018" y="284.0" text-anchor="end" class="hand" font-size="20px" font-weight="600">AioriaRegulus</text>
  <rect x="1045.0" y="261.0" width="138.8" height="32.0" rx="3" fill="url(#peach-hatch)" stroke="#242424" stroke-width="2.5" filter="url(#roughen)"/>
  <text x="1198.8" y="284.0" class="hand label">17 款</text>
  <circle cx="774" cy="329.0" r="16" fill="#fffdf7" stroke="#242424" stroke-width="2.5" filter="url(#roughen)"/>
  <text x="774" y="336.0" text-anchor="middle" class="hand label">4</text>
  <text x="1018" y="336.0" text-anchor="end" class="hand" font-size="20px" font-weight="600">luoxiaogaung</text>
  <rect x="1045.0" y="313.0" width="81.7" height="32.0" rx="3" fill="url(#lilac-hatch)" stroke="#242424" stroke-width="2.5" filter="url(#roughen)"/>
  <text x="1141.7" y="336.0" class="hand label">10 款</text>
  <circle cx="774" cy="381.0" r="16" fill="#fffdf7" stroke="#242424" stroke-width="2.5" filter="url(#roughen)"/>
  <text x="774" y="388.0" text-anchor="middle" class="hand label">5</text>
  <text x="1018" y="388.0" text-anchor="end" class="hand" font-size="20px" font-weight="600">GaBoron</text>
  <rect x="1045.0" y="365.0" width="49.0" height="32.0" rx="3" fill="url(#rose-hatch)" stroke="#242424" stroke-width="2.5" filter="url(#roughen)"/>
  <text x="1109.0" y="388.0" class="hand label">6 款</text>
  <circle cx="774" cy="433.0" r="16" fill="#fffdf7" stroke="#242424" stroke-width="2.5" filter="url(#roughen)"/>
  <text x="774" y="440.0" text-anchor="middle" class="hand label">6</text>
  <text x="1018" y="440.0" text-anchor="end" class="hand" font-size="20px" font-weight="600">b1516717676</text>
  <rect x="1045.0" y="417.0" width="40.8" height="32.0" rx="3" fill="url(#sand-hatch)" stroke="#242424" stroke-width="2.5" filter="url(#roughen)"/>
  <text x="1100.8" y="440.0" class="hand label">5 款</text>
  <circle cx="774" cy="485.0" r="16" fill="#fffdf7" stroke="#242424" stroke-width="2.5" filter="url(#roughen)"/>
  <text x="774" y="492.0" text-anchor="middle" class="hand label">7</text>
  <text x="1018" y="492.0" text-anchor="end" class="hand" font-size="20px" font-weight="600">Lelectfly</text>
  <rect x="1045.0" y="469.0" width="24.5" height="32.0" rx="3" fill="url(#blue-hatch)" stroke="#242424" stroke-width="2.5" filter="url(#roughen)"/>
  <text x="1084.5" y="492.0" class="hand label">3 款</text>
  <circle cx="774" cy="537.0" r="16" fill="#fffdf7" stroke="#242424" stroke-width="2.5" filter="url(#roughen)"/>
  <text x="774" y="544.0" text-anchor="middle" class="hand label">8</text>
  <text x="1018" y="544.0" text-anchor="end" class="hand" font-size="20px" font-weight="600">dexyrezz</text>
  <rect x="1045.0" y="521.0" width="16.3" height="32.0" rx="3" fill="url(#mint-hatch)" stroke="#242424" stroke-width="2.5" filter="url(#roughen)"/>
  <text x="1076.3" y="544.0" class="hand label">2 款</text>
  <circle cx="774" cy="589.0" r="16" fill="#fffdf7" stroke="#242424" stroke-width="2.5" filter="url(#roughen)"/>
  <text x="774" y="596.0" text-anchor="middle" class="hand label">9</text>
  <text x="1018" y="596.0" text-anchor="end" class="hand" font-size="20px" font-weight="600">leoncranston777</text>
  <rect x="1045.0" y="573.0" width="16.3" height="32.0" rx="3" fill="url(#peach-hatch)" stroke="#242424" stroke-width="2.5" filter="url(#roughen)"/>
  <text x="1076.3" y="596.0" class="hand label">2 款</text>
  <circle cx="774" cy="641.0" r="16" fill="#fffdf7" stroke="#242424" stroke-width="2.5" filter="url(#roughen)"/>
  <text x="774" y="648.0" text-anchor="middle" class="hand label">10</text>
  <text x="1018" y="648.0" text-anchor="end" class="hand" font-size="20px" font-weight="600">aumt</text>
  <rect x="1045.0" y="625.0" width="8.2" height="32.0" rx="3" fill="url(#lilac-hatch)" stroke="#242424" stroke-width="2.5" filter="url(#roughen)"/>
  <text x="1068.2" y="648.0" class="hand label">1 款</text>
  <path d="M 1330 680 L 1335 692 L 1348 693 L 1338 701 L 1341 714 L 1330 707 L 1319 714 L 1322 701 L 1312 693 L 1325 692 Z" fill="#ffe28a" stroke="#242424" stroke-width="2.5" stroke-linejoin="round" filter="url(#roughen)"/>
  <path d="M 1247 714 Q 1280 724 1308 696" fill="none" stroke="#456" stroke-width="2" stroke-dasharray="7 7" stroke-linecap="round"/>
</svg>
